#N canvas 0 0 1920 976 10;
#X obj 32 -71 inlet;
#X floatatom 806 157 5 0 0 0 - final_freq -;
#X obj 849 293 wfg 20 0 0;
#X obj 925 294 wfg 20 1 0;
#X obj 1005 292 wfg 20 2 0;
#X msg 815 398 0;
#X msg 816 423 1;
#X msg 816 449 2;
#X text 843 158 Frequency;
#X obj 890 453 multiplex~ 1 2 3 4;
#X obj 1116 296 osc~;
#X msg 813 475 3;
#X obj 740 332 demux 1 2 3 4;
#X obj 233 -68 inlet;
#X obj -33 297 gauss 1 0;
#X obj 103 267 triang;
#X floatatom 174 259 5 0 0 0 - f_var -;
#X obj 127 297 expr $f1*$f2 + $f3;
#X floatatom 231 261 5 0 0 0 - f_mean -;
#X obj 301 272 cauchy 0.5;
#X obj 335 298 expr $f1 + $f2;
#X floatatom 357 245 5 0 0 0 - f_var -;
#X floatatom 416 263 5 0 0 0 - f_mean -;
#X obj 488 272 poisson 200;
#X obj 514 304 expr $f1 + $f2;
#X floatatom 594 274 5 0 0 0 - f_mean -;
#X floatatom 551 241 5 0 0 0 - f_var -;
#X floatatom -11 258 5 0 0 0 - f_var -;
#X floatatom 31 260 5 0 0 0 - f_mean -;
#X obj 919 679 multiplex~ 1 2 3 4;
#X floatatom 1099 560 5 0 0 0 - k_beta -;
#X obj 1024 582 gaussian~;
#X obj 1098 583 kaiser~;
#X obj 957 582 blackman~;
#X obj 892 581 hanning~;
#X obj 462 -67 inlet;
#X obj 662 -66 inlet;
#X obj 462 -44 send f_mean;
#X obj 663 -42 send f_var;
#X obj 233 -37 send wf;
#X obj 812 306 r wf;
#X obj 32 -43 s gd;
#X obj 121 62 r gd;
#X obj 227 345 s final_freq;
#X obj 893 -65 inlet;
#X obj 894 -39 s c_dist;
#X obj 186 225 demux 1 2 3 4;
#X obj 262 196 r c_dist;
#X obj 1158 -65 inlet;
#X obj 1159 -39 s c_env;
#X msg 833 672 0;
#X msg 834 697 1;
#X msg 834 723 2;
#X msg 831 749 3;
#X obj 758 606 demux 1 2 3 4;
#X obj 824 583 r c_env;
#X text 779 787 0->Hanning 1->Blackman 2->Gaussian 3->Kaiser;
#X obj 1385 -65 inlet;
#X obj 1386 -39 s k_beta;
#X text 534 425 0->Square 1->Sawtooth 2->Triangular 3->sine;
#X text 97 363 0->Gaussian 1->Triangular 2->Cauchy 3->Poisson;
#X obj 107 117 t b b b;
#X text 17 29 Main Control (Over grain duration);
#X obj 147 144 bng 15 250 50 0 1_freq_gen empty empty 17 7 0 10 -262144
-1 -1;
#X obj 127 145 bng 15 250 50 0 2_freq_wf empty empty 17 7 0 10 -262144
-1 -1;
#X obj 107 147 bng 15 250 50 0 3_env empty empty 17 7 0 10 -262144
-1 -1;
#X obj 186 199 bng 15 250 50 0 empty 1_freq_gen empty 17 7 0 10 -262144
-1 -1;
#X obj 741 303 bng 15 250 50 0 empty 2_freq_wf empty 17 7 0 10 -262144
-1 -1;
#X obj 756 582 bng 15 250 50 0 empty 3_env empty 17 7 0 10 -262144
-1 -1;
#X obj 930 725 hip~ 5;
#X text 1121 332 Waveform Choice;
#X text 191 390 Frequency Generation;
#X text 1072 692 Windowing via Envelopes;
#X obj -146 -67 inlet;
#X obj -147 -46 s master;
#X obj 43 54 r master;
#X obj -46 -60 tgl 15 0 empty empty empty 17 7 0 10 -262144 -1 -1 0
1;
#X obj -11 110 tgl 15 0 empty empty empty 17 7 0 10 -262144 -1 -1 0
1;
#X obj 77 86 metro 1000;
#X floatatom 181 68 5 0 0 0 - - -;
#X obj 929 761 throw~ grain_audio;
#X text 79 -55 comment;
#X text 30 -22 comment;
#X text 72 -71 Inlet 2 - Grain Duration;
#X text 274 -67 Inlet 3 - Choice of waveform;
#X text 503 -68 Inlet 4 - Frequency Mean;
#X text 698 -65 Inlet 5 - Frequency Variance;
#X text 934 -67 Inlet 6 - Choice of Distribution;
#X text 1199 -67 Inlet 7 - Choice of Envelope;
#X text 1426 -67 Inlet 8 - Kaiser Parameter beta;
#X text -172 -28 Inlet 1 - Main Switch;
#X text 1100 379 Waveform Generation;
#X connect 0 0 41 0;
#X connect 1 0 2 0;
#X connect 1 0 3 0;
#X connect 1 0 4 0;
#X connect 1 0 10 0;
#X connect 2 0 9 0;
#X connect 3 0 9 1;
#X connect 4 0 9 2;
#X connect 5 0 9 0;
#X connect 6 0 9 0;
#X connect 7 0 9 0;
#X connect 9 0 34 0;
#X connect 9 0 33 0;
#X connect 9 0 31 0;
#X connect 9 0 32 0;
#X connect 10 0 9 3;
#X connect 11 0 9 0;
#X connect 12 0 5 0;
#X connect 12 1 6 0;
#X connect 12 2 7 0;
#X connect 12 3 11 0;
#X connect 13 0 39 0;
#X connect 14 0 43 0;
#X connect 15 0 17 0;
#X connect 16 0 17 1;
#X connect 17 0 43 0;
#X connect 18 0 17 2;
#X connect 19 0 20 0;
#X connect 20 0 43 0;
#X connect 21 0 19 1;
#X connect 22 0 20 1;
#X connect 23 0 24 0;
#X connect 24 0 43 0;
#X connect 25 0 24 1;
#X connect 26 0 23 1;
#X connect 27 0 14 1;
#X connect 28 0 14 2;
#X connect 29 0 69 0;
#X connect 30 0 32 0;
#X connect 31 0 29 2;
#X connect 32 0 29 3;
#X connect 33 0 29 1;
#X connect 34 0 29 0;
#X connect 35 0 37 0;
#X connect 36 0 38 0;
#X connect 40 0 12 1;
#X connect 42 0 78 1;
#X connect 44 0 45 0;
#X connect 46 0 14 0;
#X connect 46 1 15 0;
#X connect 46 2 19 0;
#X connect 46 3 23 0;
#X connect 47 0 46 1;
#X connect 48 0 49 0;
#X connect 50 0 29 0;
#X connect 51 0 29 0;
#X connect 52 0 29 0;
#X connect 53 0 29 0;
#X connect 54 0 50 0;
#X connect 54 1 51 0;
#X connect 54 2 52 0;
#X connect 54 3 53 0;
#X connect 55 0 54 1;
#X connect 57 0 58 0;
#X connect 61 0 65 0;
#X connect 61 1 64 0;
#X connect 61 2 63 0;
#X connect 66 0 46 0;
#X connect 67 0 12 0;
#X connect 68 0 54 0;
#X connect 69 0 80 0;
#X connect 73 0 74 0;
#X connect 75 0 77 0;
#X connect 75 0 78 0;
#X connect 76 0 74 0;
#X connect 78 0 61 0;
#X connect 79 0 78 1;
#X coords 0 976 1 975 85 60 0;
