#N canvas 0 0 1920 976 10;
#X obj 56 303 metro 10;
#X text 114 217 Control Number of Grains;
#X floatatom 188 477 5 0 0 0 - start_freq -;
#X text 220 477 Start Frequency;
#X floatatom 82 391 5 0 0 0 - end_freq -;
#X text 68 377 Stop Frequency;
#X floatatom 135 231 5 0 0 0 - g_num -;
#X obj 311 308 t b;
#X floatatom 132 258 5 0 0 0 - g_dur -;
#X obj 255 345 expr $f1 * $f2;
#X floatatom 147 403 5 0 0 0 - - -;
#X text 168 257 Duration of each grain in ms;
#X obj 76 507 line~;
#X obj 35 556 snapshot~;
#X obj 76 425 pack f f;
#X floatatom 94 582 5 0 0 0 - - -;
#X obj 308 433 metro 10;
#X obj -116 2 inlet;
#X obj -117 36 s g_dur;
#X text -72 2 Grain Duration;
#X obj 36 7 inlet;
#X obj 35 37 s g_num;
#X text 76 5 Grain Numnber;
#X obj 1108 87 gauss 1 0;
#X obj 1244 57 triang;
#X floatatom 1315 49 5 0 0 0 - sf_var -;
#X obj 1268 87 expr $f1*$f2 + $f3;
#X floatatom 1372 51 0 0 0 0 - sf_m -;
#X obj 1442 62 cauchy 0.5;
#X obj 1476 88 expr $f1 + $f2;
#X floatatom 1498 35 5 0 0 0 - sf_var -;
#X floatatom 1557 53 5 0 0 0 - sf_m -;
#X obj 1629 62 poisson 200;
#X obj 1655 94 expr $f1 + $f2;
#X floatatom 1735 64 5 0 0 0 - sf_m -;
#X floatatom 1692 31 5 0 0 0 - sf_var -;
#X floatatom 1130 48 5 0 0 0 - sf_var -;
#X floatatom 1172 50 5 0 0 0 - sf_m -;
#X obj 1327 15 demux 1 2 3 4;
#X text 1026 6 0->Gaussian 1->Triangular 2->Cauchy 3->Poisson;
#X text 1518 2 Frequency Generation Start;
#X obj 1353 120 s start_freq;
#X obj 194 5 inlet;
#X text 232 2 Start Frequency Mean;
#X obj 372 3 inlet;
#X obj 544 2 inlet;
#X obj 717 3 inlet;
#X obj 194 44 s sf_m;
#X obj 372 42 s sf_var;
#X text 410 0 Start Frequency var;
#X text 582 -1 End Frequency Mean;
#X text 755 0 End Frequency var;
#X obj 544 41 s ef_m;
#X obj 1131 298 gauss 1 0;
#X obj 1267 268 triang;
#X floatatom 1338 260 5 0 0 0 - ef_var -;
#X obj 1291 298 expr $f1*$f2 + $f3;
#X floatatom 1395 262 0 0 0 0 - ef_m -;
#X obj 1465 273 cauchy 0.5;
#X obj 1499 299 expr $f1 + $f2;
#X floatatom 1521 246 5 0 0 0 - ef_var -;
#X floatatom 1580 264 5 0 0 0 - ef_m -;
#X obj 1652 273 poisson 200;
#X obj 1678 305 expr $f1 + $f2;
#X floatatom 1758 275 5 0 0 0 - ef_m -;
#X floatatom 1715 242 5 0 0 0 - ef_var -;
#X floatatom 1153 259 5 0 0 0 - ef_var -;
#X floatatom 1195 261 5 0 0 0 - ef_m -;
#X obj 1350 226 demux 1 2 3 4;
#X text 1049 217 0->Gaussian 1->Triangular 2->Cauchy 3->Poisson;
#X text 1541 213 Frequency Generation End;
#X obj 717 42 s ef_var;
#X obj -108 103 inlet;
#X text -61 102 master control;
#X obj -108 133 s master_control;
#X obj 1376 331 s end_freq;
#X obj 1349 204 delay 1;
#X obj 1417 -14 r sf_dist;
#X obj 1430 184 r ef_dist;
#X obj -56 260 r master_control;
#X obj -9 324 bng 15 250 50 0 start_control empty empty 17 7 0 10 -262144
-1 -1;
#X obj -19 349 bng 15 250 50 0 end_control empty empty 17 7 0 10 -262144
-1 -1;
#X obj 1349 182 bng 15 250 50 0 empty end_control empty 17 7 0 10 -262144
-1 -1;
#X obj 1327 -8 bng 15 250 50 0 empty start_control empty 17 7 0 10
-262144 -1 -1;
#X floatatom 674 170 5 0 0 0 - gliss_freq -;
#X obj 717 306 wfg 20 0 0;
#X obj 793 307 wfg 20 1 0;
#X obj 873 305 wfg 20 2 0;
#X msg 683 411 0;
#X msg 684 436 1;
#X msg 684 462 2;
#X text 711 171 Frequency;
#X obj 758 466 multiplex~ 1 2 3 4;
#X obj 984 309 osc~;
#X msg 681 488 3;
#X obj 608 345 demux 1 2 3 4;
#X obj 787 692 multiplex~ 1 2 3 4;
#X floatatom 967 573 5 0 0 0 - gliss_k_beta -;
#X obj 892 595 gaussian~;
#X obj 966 596 kaiser~;
#X obj 825 595 blackman~;
#X obj 760 594 hanning~;
#X msg 701 685 0;
#X msg 702 710 1;
#X msg 702 736 2;
#X msg 699 762 3;
#X obj 626 619 demux 1 2 3 4;
#X text 647 800 0->Hanning 1->Blackman 2->Gaussian 3->Kaiser;
#X text 402 438 0->Square 1->Sawtooth 2->Triangular 3->sine;
#X obj 609 316 bng 15 250 50 0 empty gliss_freq_wf_choice empty 17
7 0 10 -262144 -1 -1;
#X obj 624 595 bng 15 250 50 0 empty gliss_env_choice empty 17 7 0
10 -262144 -1 -1;
#X obj 798 738 hip~ 5;
#X text 989 345 Waveform Choice;
#X text 853 731 Windowing via Envelopes;
#X obj -18 672 s gliss_freq;
#X obj -56 294 t b b b b;
#X obj -35 324 bng 15 250 50 0 gliss_freq_wf_choice empty empty 17
7 0 10 -262144 -1 -1;
#X obj -54 335 bng 15 250 50 0 gliss_env_choice empty empty 17 7 0
10 -262144 -1 -1;
#X obj 638 310 r gliss_wf;
#X obj 674 591 r gliss_env;
#X obj 50 102 inlet;
#X obj 50 132 s gliss_wf;
#X text 97 101 Waveform Choice;
#X obj 203 103 inlet;
#X obj 203 133 s gliss_env;
#X text 246 101 Envelope Choice;
#X obj 358 103 inlet;
#X text 401 101 Kaiser beta;
#X obj 358 133 s gliss_k_beta;
#X obj -43 566 * 100;
#X obj 298 380 tgl 15 0 empty master_control empty 17 7 0 10 -262144
-1 -1 0 1;
#X obj 321 467 s start_freq;
#X obj 802 776 throw~ glisson_audio;
#X text -59 30 1;
#X text 103 27 3;
#X text 255 27 5;
#X text 442 25 8;
#X text 597 27 9;
#X text 799 20 10;
#X text -66 152 2;
#X text 109 150 4;
#X text 261 151 6;
#X text 405 158 7;
#X obj 888 4 inlet;
#X obj 948 1 inlet;
#X obj 971 47 s ef_dist;
#X obj 889 50 s sf_dist;
#X connect 0 0 13 0;
#X connect 2 0 12 0;
#X connect 4 0 14 0;
#X connect 6 0 7 0;
#X connect 6 0 9 1;
#X connect 7 0 9 0;
#X connect 8 0 0 1;
#X connect 8 0 7 0;
#X connect 8 0 9 0;
#X connect 9 0 10 0;
#X connect 10 0 14 1;
#X connect 10 0 16 1;
#X connect 12 0 13 0;
#X connect 13 0 15 0;
#X connect 13 0 129 0;
#X connect 14 0 12 0;
#X connect 16 0 131 0;
#X connect 16 0 115 0;
#X connect 17 0 18 0;
#X connect 20 0 21 0;
#X connect 23 0 41 0;
#X connect 24 0 26 0;
#X connect 25 0 26 1;
#X connect 26 0 41 0;
#X connect 27 0 26 2;
#X connect 28 0 29 0;
#X connect 29 0 41 0;
#X connect 30 0 28 1;
#X connect 31 0 29 1;
#X connect 32 0 33 0;
#X connect 33 0 41 0;
#X connect 34 0 33 1;
#X connect 35 0 32 1;
#X connect 36 0 23 1;
#X connect 37 0 23 2;
#X connect 38 0 23 0;
#X connect 38 1 24 0;
#X connect 38 2 28 0;
#X connect 38 3 32 0;
#X connect 42 0 47 0;
#X connect 44 0 48 0;
#X connect 45 0 52 0;
#X connect 46 0 71 0;
#X connect 53 0 75 0;
#X connect 54 0 56 0;
#X connect 55 0 56 1;
#X connect 56 0 75 0;
#X connect 57 0 56 2;
#X connect 58 0 59 0;
#X connect 59 0 75 0;
#X connect 60 0 58 1;
#X connect 61 0 59 1;
#X connect 62 0 63 0;
#X connect 63 0 75 0;
#X connect 64 0 63 1;
#X connect 65 0 62 1;
#X connect 66 0 53 1;
#X connect 67 0 53 2;
#X connect 68 0 53 0;
#X connect 68 1 54 0;
#X connect 68 2 58 0;
#X connect 68 3 62 0;
#X connect 72 0 74 0;
#X connect 76 0 68 0;
#X connect 77 0 38 1;
#X connect 78 0 68 1;
#X connect 79 0 0 0;
#X connect 79 0 115 0;
#X connect 82 0 76 0;
#X connect 83 0 38 0;
#X connect 84 0 85 0;
#X connect 84 0 86 0;
#X connect 84 0 87 0;
#X connect 84 0 93 0;
#X connect 85 0 92 0;
#X connect 86 0 92 1;
#X connect 87 0 92 2;
#X connect 88 0 92 0;
#X connect 89 0 92 0;
#X connect 90 0 92 0;
#X connect 92 0 101 0;
#X connect 92 0 100 0;
#X connect 92 0 98 0;
#X connect 92 0 99 0;
#X connect 93 0 92 3;
#X connect 94 0 92 0;
#X connect 95 0 88 0;
#X connect 95 1 89 0;
#X connect 95 2 90 0;
#X connect 95 3 94 0;
#X connect 96 0 111 0;
#X connect 97 0 99 0;
#X connect 98 0 96 2;
#X connect 99 0 96 3;
#X connect 100 0 96 1;
#X connect 101 0 96 0;
#X connect 102 0 96 0;
#X connect 103 0 96 0;
#X connect 104 0 96 0;
#X connect 105 0 96 0;
#X connect 106 0 102 0;
#X connect 106 1 103 0;
#X connect 106 2 104 0;
#X connect 106 3 105 0;
#X connect 109 0 95 0;
#X connect 110 0 106 0;
#X connect 111 0 132 0;
#X connect 115 0 117 0;
#X connect 115 1 116 0;
#X connect 115 2 81 0;
#X connect 115 3 80 0;
#X connect 118 0 95 1;
#X connect 119 0 106 1;
#X connect 120 0 121 0;
#X connect 123 0 124 0;
#X connect 126 0 128 0;
#X connect 129 0 114 0;
#X connect 130 0 16 0;
#X connect 143 0 146 0;
#X connect 144 0 145 0;
